<?xml version="1.0" standalone="no"?><!DOCTYPE svg PUBLIC "-//W3C//DTD SVG 1.1//EN" "http://www.w3.org/Graphics/SVG/1.1/DTD/svg11.dtd"><svg t="1561195583078" class="icon" viewBox="0 0 1756 1024" version="1.1" xmlns="http://www.w3.org/2000/svg" p-id="852" xmlns:xlink="http://www.w3.org/1999/xlink" width="342.96875" height="200"><defs><style type="text/css"></style></defs><path d="M1617.24189443 629.25130654A449.43042041 449.43042041 0 0 1 1510.13223789 797.62687403a545.82884737 545.82884737 0 0 1-253.63473838 144.38318729 585.24603047 585.24603047 0 0 1-475.13666777-77.54676855 516.26683916 516.26683916 0 0 1-209.07771153-299.90651045c-46.69979941-180.79978536-216.36032872-299.90563153-358.17359414-331.61041406a590.81478047 590.81478047 0 0 1 299.90563155 93.82762705 484.13403018 484.13403018 0 0 1 174.37498154 214.21931221c140.09764131 328.61070704 452.85727588 342.74967011 619.09094883 304.18942061A503.41371503 503.41371503 0 0 0 1617.24189443 629.25218545" fill="#1FA5FF" p-id="853"></path><path d="M1610.38642656 339.62711855a471.28090605 471.28090605 0 0 1 6.85546787 116.53504629 432.2935081 432.2935081 0 0 1-38.98827686 128.53123594 451.1442876 451.1442876 0 0 1-165.37674023 165.80564649 483.27709658 483.27709658 0 0 1-320.89918447 57.83905635 435.29233623 435.29233623 0 0 1-348.31929815-283.19762638c-61.69569609-167.09060742-262.63297969-342.74967011-535.11849757-342.74967011a947.70341367 947.70341367 0 0 1 266.91588986-4.71269444 971.69579385 971.69579385 0 0 1 281.05485205 91.68573252 774.61515088 774.61515088 0 0 1 242.06745498 201.36618897 325.61275781 325.61275781 0 0 0 241.63854785 128.53035703 361.60132852 361.60132852 0 0 0 275.4852249-85.68719736A328.18355859 328.18355859 0 0 0 1610.38642656 337.91325136" fill="#1FA5FF" p-id="854"></path><path d="M1546.54883593 248.37029229a230.92731914 230.92731914 0 0 1-14.99413887 160.66404579 274.20026309 274.20026309 0 0 1-128.53123681 116.53416651 324.32691797 324.32691797 0 0 1-208.64968418 17.13867012A330.75348047 330.75348047 0 0 1 1005.432683 399.17916318a675.2170169 675.2170169 0 0 0-196.22458828-165.80564648 777.61397901 777.61397901 0 0 0-292.19323008-106.25184403 992.68934677 992.68934677 0 0 0-272.48727568-1e-8 894.14902529 894.14902529 0 0 1 200.50925538-54.41132198 859.87344287 859.87344287 0 0 1 283.6256537 4.71269444A709.49259932 709.49259932 0 0 1 1023.42740781 203.81150849c50.12753379 39.4163042 94.68455977 85.68807715 144.81209355 131.10203672a254.49167198 254.49167198 0 0 0 180.79978536 56.98212276A234.78395888 234.78395888 0 0 0 1546.55059375 248.37029229" fill="#1FA5FF" p-id="855"></path><path d="M1145.96098839 240.65876972a198.79451016 198.79451016 0 0 1 161.09207225-125.96131405 221.93083565 221.93083565 0 0 1 219.7880622 89.11493173 274.62829042 274.62829042 0 0 0-164.09177929-128.53123681 312.75875566 312.75875566 0 0 0-311.47379473 81.83231543z m-698.35334327 193.22488213s27.8481419 42.84403857 52.69745566 89.11493174a291.33717539 291.33717539 0 0 1-183.37058614 49.27060019 263.06012813 263.06012813 0 0 1-225.35856914-150.8106287 193.6537875 193.6537875 0 0 1 16.70888497-188.08328057 182.51365253 182.51365253 0 0 0 0 133.6728375 211.21960605 211.21960605 0 0 0 125.10350156 106.25096514 234.78395888 234.78395888 0 0 0 214.21931309-39.4154253" fill="#1FA5FF" p-id="856"></path></svg>